name C:\Users\u0101727\Documents\MyRepositories\upper-imu-dc\Results\main_tracking\Case_46\FLX02_orientations_groundFrame.mot
datacolumns 13
datarows 14
range 2.13000000 2.26000000
endheader 
time	radius_imu_[0][0]	radius_imu_[0][1]	radius_imu_[0][2]	radius_imu_[1][0]	radius_imu_[1][1]	radius_imu_[1][2]	radius_imu_[2][0]	radius_imu_[2][1]	radius_imu_[2][2]	radius_imu_x	radius_imu_y	radius_imu_z	
          2.13000000	          0.38097778	         -0.92442720	          0.01703749	         -0.33654734	         -0.12148875	          0.93379675	         -0.86115725	         -0.36148974	         -0.35739803	         -1.93633231	          0.01703832	          1.17988290	
          2.14000000	          0.38275945	         -0.92379901	          0.00951857	         -0.34122280	         -0.13178986	          0.93069782	         -0.85852327	         -0.35948133	         -0.36566509	         -1.94516141	          0.00951871	          1.17799620	
          2.15000000	          0.38467063	         -0.92305172	          0.00200602	         -0.34582271	         -0.14210179	          0.92747708	         -0.85582425	         -0.35746692	         -0.37387464	         -1.95398026	          0.00200602	          1.17594451	
          2.16000000	          0.38669428	         -0.92219158	         -0.00549789	         -0.35034054	         -0.15241463	          0.92413813	         -0.85307036	         -0.35543280	         -0.38201896	         -1.96278254	         -0.00549792	          1.17374567	
          2.17000000	          0.38881268	         -0.92122523	         -0.01299157	         -0.35476569	         -0.16271652	          0.92068705	         -0.85027408	         -0.35336583	         -0.39008535	         -1.97155637	         -0.01299194	          1.17141819	
          2.18000000	          0.39100862	         -0.92015928	         -0.02047346	         -0.35908542	         -0.17299435	          0.91713173	         -0.84744907	         -0.35125470	         -0.39805806	         -1.98028629	         -0.02047489	          1.16898005	
          2.19000000	          0.39326735	         -0.91899950	         -0.02794110	         -0.36328707	         -0.18323471	          0.91348101	         -0.84460837	         -0.34909161	         -0.40592086	         -1.98895603	         -0.02794474	          1.16644666	
          2.20000000	          0.39557889	         -0.91774990	         -0.03539009	         -0.36736031	         -0.19342512	          0.90974344	         -0.84176228	         -0.34687439	         -0.41365979	         -1.99755139	         -0.03539748	          1.16382827	
          2.21000000	          0.39794032	         -0.91641176	         -0.04281334	         -0.37129897	         -0.20355540	          0.90592620	         -0.83891631	         -0.34460801	         -0.42126564	         -2.00606304	         -0.04282643	          1.16112755	
          2.22000000	          0.40035686	         -0.91498319	         -0.05020099	         -0.37510199	         -0.21361885	          0.90203408	         -0.83606990	         -0.34230505	         -0.42873578	         -2.01448849	         -0.05022210	          1.15833845	
          2.23000000	          0.40284111	         -0.91345939	         -0.05754115	         -0.37877348	         -0.22361306	          0.89806895	         -0.83321647	         -0.33998404	         -0.43607473	         -2.02283289	         -0.05757295	          1.15544690	
          2.24000000	          0.40541032	         -0.91183366	         -0.06482163	         -0.38232179	         -0.23354004	          0.89402970	         -0.83034482	         -0.33766614	         -0.44329342	         -2.03110837	         -0.06486712	          1.15243380	
          2.25000000	          0.40808247	         -0.91009895	         -0.07203199	         -0.38575779	         -0.24340559	          0.88991272	         -0.82744161	         -0.33537088	         -0.45040732	         -2.03933214	         -0.07209443	          1.14927916	
          2.26000000	          0.41087263	         -0.90824916	         -0.07916526	         -0.38909291	         -0.25321830	          0.88571282	         -0.82449402	         -0.33311251	         -0.45743378	         -2.04752376	         -0.07924818	          1.14596598	
